# xmcd
#
# Track frame offsets: 
#        150
#        12977
#        24565
#        36500
#        49762
#        62300
#        74505
#        86955
#        102570
#        117482
#        135950
#        147400
#        160992
#        175692
#        190865
#        201732
#        214752
#        227875
#        239430
#        251667
#        267190
#        281025
#
# Disc length: 3930 seconds
#
# Revision: 6
# Processed by: cddbd v1.5.2PL0 Copyright (c) Steve Scherf et al.
# Submitted via: ExactAudioCopy v0.99pb4
#
DISCID=540f5816
DTITLE=Various Artis - Solid Gold Soul - Deep Soul
DYEAR=1999
DGENRE=R&B
TTITLE0=Jackie Wilson - Doggin' Around
TTITLE1=Solomon Burke - If You Need Me
TTITLE2=Erma Franklin - Piece Of My Heart
TTITLE3=Otis Redding - I've Been Loving You Long (To Stop Now)
TTITLE4=Aretha Franklin - (You Make Me Feel Like) A Natural Woman
TTITLE5=Bobby Bland - Cry Cry Cry
TTITLE6=James Brown - It's A Man's Man's Man's World
TTITLE7=Garnet Mimms And The Enchanters - Cry Baby
TTITLE8=Sam And Dave - When Something Is Wrong With My Baby
TTITLE9=B.B. King - The Thrill Is Gone
TTITLE10=James Carr - The Dark End Of The Street
TTITLE11=Ben E. King - Stand By Me
TTITLE12=Betty Harris - Cry To Me
TTITLE13=Chuck Jackson - Any Day Now (My Wild Beautiful Bird)
TTITLE14=Otis Redding - That's How Strong My Love Is
TTITLE15=Percy Sledge - When A Man Loves A Woman
TTITLE16=Irma Thomas - Time Is On My Side
TTITLE17=Wilson Pickett - I Found Love Part 1
TTITLE18=Aaron Neville - Tell It Like It Is
TTITLE19=Luther Ingram - (If Loving You Is Wrong) I Don't Want To Be R
TTITLE19=ight
TTITLE20=Clarence Carter - I'd Rather Go Blind
TTITLE21=O.V. Wright - Eight Men Four Women
EXTD=ID3G:   0
EXTT0=
EXTT1=
EXTT2=
EXTT3=
EXTT4=
EXTT5=
EXTT6=
EXTT7=
EXTT8=
EXTT9=
EXTT10=
EXTT11=
EXTT12=
EXTT13=
EXTT14=
EXTT15=
EXTT16=
EXTT17=
EXTT18=
EXTT19=
EXTT20=
EXTT21=
PLAYORDER=
